/* XPM */
static char * col_xpm[] = {
"60 60 9 1",
" 	c #497A40",
".	c #4E9045",
"+	c #000000",
"@	c #008566",
"#	c #00A16E",
"$	c #00767B",
"%	c #F6DCAB",
"&	c #E3BA73",
"*	c #FFF8CF",
"    .........    ......................            .........",
"    .........    ......................            .........",
"    .........    ......................            .........",
"    .........    ......................            .........",
".............             ..................................",
".............             ......++++........................",
".............             ......++++........................",
".............             .+++++@@##+++.....................",
".............             .+++++@@##+++.....................",
"....     ............     .+++++@@##+++.....................",
"....     ............    ++@@#######@@@++...................",
"....     ............    ++@@#######@@@++...................",
"....     ............ +++$$##############++.................",
"....     ....    .....+++$$##############++    ....     ....",
"....     ....    .++++###################$$++  ....     ....",
"....     ....    .++++###################$$++  ....     ....",
"....     ....   ++@@#######################++  ....     ....",
".............   ++@@#######################++  ....     ....",
".............   ++@@#######################++  ....     ....",
"...........+++++###########################@@+++...     ....",
"...........+++++###########################@@+++...     ....",
"    .....++$$################################+++...     ....",
"    .....++$$################################+++............",
"    ..+++@@#####################################++..........",
"    ..+++@@#####################################++..........",
"    ++$$$#########$$##############@@############@@++........",
"    ++$$$#########$$##############@@############@@++........",
"    ++$$$#########$$##############@@############@@++........",
"    ++##########@@##################################+++.....",
"    ++##########@@##################################+++.....",
"....++@@@################@@#########$$$######@@@####$$$++...",
"....++@@@################@@#########$$$######@@@####$$$++...",
"......+++@@#####@@#####################################++...",
"......+++@@#####@@#####################################++...",
"......+++@@#####@@#####################################++   ",
".........++++$$$$$#######$$#########@@@######@@@####@@@++   ",
".........++++$$$$$#######$$#########@@@######@@@####@@@++   ",
".............++++++++++++++++#####$$@@@#########@@$$+++.    ",
".............++++++++++++++++#####$$@@@#########@@$$+++.    ",
"....     ........        ++%%+++++++++++++++++++++++....    ",
"....     ........        ++%%+++++++++++++++++++++++....    ",
"....     ........     +++&&*******++....................    ",
"....     ........     +++&&*******++....................    ",
"....     ........    .+++&&*******++   ........    .........",
"....     ........    .+++%%**%%%++     ........    .........",
"....     ........    .+++%%**%%%++     ........    .........",
"....     ........    .+++*******++     ........    .........",
".........    .........+++*******++     ........    .........",
".........    .......++%%%*******%%++   ........    .........",
".........    .......++%%%*******%%++   ........    .........",
".........    .......++&&&%%*******&&+++........    .........",
".........    .......++&&&%%*******&&+++.................    ",
".........    .......++&&&%%*******&&+++.................    ",
".........    .......+++++++++++++++++++.................    ",
".........    .......+++++++++++++++++++.................    ",
".........    .............    ..........................    ",
"    ......................    .........            .....    ",
"    ......................    .........            .....    ",
"    ......................    .........            .....    ",
"    ......................    .........            .....    "};
