/* XPM */
static char * exit_open_xpm[] = {
"60 60 8 1",
" 	c #497A40",
".	c #4E9045",
"+	c #464646",
"@	c #000000",
"#	c #990030",
"$	c #ED1C24",
"%	c #FFFFFF",
"&	c #5B750B",
"    .........    ......................            .........",
"    .........    ......................            .........",
"    .........    ......................            .........",
"    .........    ......................            .........",
".............             ..................................",
".............             ..................................",
".............             ..................................",
".............            +++++++++++........................",
".............        ++++@@@@@@@@@@@++++....................",
"....     ..........++@@@@@@@@@@@@@@@@@@@++..................",
"....     ........+++@@@@@@@@@@@@@@@@@@@@@@++................",
"....     ......++@@@@@@@@@@@@@@@@@@@@@@@@@@+++..............",
"....     .....+@@@@@@@@@@@@@@@@@@@@@@@@@@@@@@@+.............",
"....     ....+@@@@@@@@@@@@@@@@@@@@@@@@@@@@@@@@@+...     ....",
"....     ...++@@@@@@@@@@@@@@@@@@@@@@@@@@@@@@@@@@+..     ....",
"....     ...+@@@@@@@@@@@@@@@@@@@@@@@@@@@@@@@@@@@+..     ....",
"....     ..+@@@@@@@@@@@@@@@@@@@@@@@@@@@@@@@@@@@@@+.     ....",
"...........+@@@@@@@@@@@@@@@@@@@@@@@@@@@@@@@@@@@@@+.     ....",
"..........+@@@@@@@@@@@@@@@@@@@@@@@@@@@@@@@@@@@@@@@+     ....",
"..........+@@@@@@@@@@@@@@@@@@@@@@@@@@@@@@@@@@@@@@@+     ....",
"..........+@@@@@@@@@@@@@@@@@@@@@@@@@@@@@@@@@@@@@@@+     ....",
"    ......+@@@@@@@@@@@@@@@@@@@@@@@@@@@@@@@@@@@@@@@+     ....",
"    ......+@@@@@@@@@@@@@@@@@@@@@@@@@@@@@@@@@@@@@@@+.........",
"    ......+@@@@@@@@@@@@@@@@@@@@@@@@@@@@@@@@@@@@@@@+.........",
"    ......+@@@@@@@@@@@@@@@@@@@@@@@@@@@@@@@@@@@@@@@+.........",
"    ......+@@@@@@@@@@@@@@@@@@@@@@@@@@@@@@@@@@@@@@@+.........",
"    ......+@@@@@@@@@@@@@@@###@@###@@@@@@@@@@@@@@@@+.........",
"    ......+@@@@@@@@@@@@@@@#+#@@#+#@@@@@@@@@@@@@@@@+.........",
"    ......+@@@@@@@@@@@@@@@#$#@@#$#@@@@@@@@@@@@@@@@+.........",
"    ......+@@@@@@@@@@@@@@@#+#@@#+#@@@@@@@@@@@@@@@@+.........",
"..........+@@@@@@@@@@@@@@@###@@###@@@@@@@@@@@@@@@@+.........",
"..........+@@@@@@@@@@@@@@@@@@@@@@@@@@@@@@@@@@@@@@@+.........",
"..........+@@@@@@@@@@@@@@@@@@@@@@@@@@@@@@@@@@@@@@@+.........",
"..........+@@@@@@@@@@@@@@@@@@@@@@@@@@@@@@@@@@@@@@@+.........",
"..........+@@@@@@@@@@@@@%@@@@@@@@@@@%@@@@@@@@@@@@@+.....    ",
"..........+@@@@@@@@@@@@@@%+%+%+%+%+%@@@@@@@@@@@@@@+.....    ",
"..........+@@@@@@@@@@@@@@+%+%+%+%+%+@@@@@@@@@@@@@@+.....    ",
"..........+@@@@@@@@@@@@@@@@@@@@@@@@@@@@@@@@@@@@@@@+.....    ",
"..........+@@@@@@@@@@@@@@@@@@@@@@@@@@@@@@@@@@@@@@@+.....    ",
"....     .+@@@@@@@@@@@@@@@@@@@@@@@@@@@@@@@@@@@@@@@+.....    ",
"....     .+@@@@@@@@@@@@@@@@@@@@@@@@@@@@@@@@@@@@@@@+.....    ",
"....     .+@@@@@@@@@@@@@@@@@@@@@@@@@@@@@@@@@@@@@@@+.....    ",
"....     .+@@@@@@@@@@@@@@@@@@@@@@@@@@@@@@@@@@@@@@@+.....    ",
"....     .+@@@@@@@@@@@@@@@@@@@@@@@@@@@@@@@@@@@@@@@+.........",
"....     .+@&@@@@@@@@@@@@@@&@@@@@@@@@@@@@@@@&@@@@@+...&.....",
"....    &.+&&&@@@@@@@@@&@@&&&@@@@@@@@@@&@@&&&&@@@@&..&&&....",
"....&  & &&&@@&@@@@&@@&&&@&@&&@@@@&@@&&@&&&&@@&@@&+&.&..&...",
"&.....&.&&&&@&&&@@@@&&@@&&&&&&@@@@@&&@&@&&&&@&&@&@+&&&.&&...",
".&.&.&&.&&&&&&&@&@&@&&@&&&&&&&&@@&@&&&&&&&&&&&&&&@&&&&&&&...",
"&&&&&&&&&&&&&&&&&@&&&&&&&&&&&&&&@&&&&&&&&&&&&&&&&&&&&&&&&&&.",
"&&&&&&&&&&&&&&&&&&&&&&&&&&&&&&&&&&&&&&&&&&&&&&&&&&&&&&&&&&&&",
".........    .............    ..........................    ",
".........    .............    ..........................    ",
".........    .............    ..........................    ",
".........    .............    ..........................    ",
".........    .............    ..........................    ",
"    ......................    .........            .....    ",
"    ......................    .........            .....    ",
"    ......................    .........            .....    ",
"    ......................    .........            .....    "};
