/* XPM */
static char * exit_closed_xpm[] = {
"60 60 5 1",
" 	c #497A40",
".	c #4E9045",
"+	c #464646",
"@	c #000000",
"#	c #5B750B",
"    .........    ......................            .........",
"    .........    ......................            .........",
"    .........    ......................            .........",
"    .........    ......................            .........",
".............             ..................................",
".............             ..................................",
".............             ..................................",
".............            +++++++++++........................",
".............        +++++@@+@@+@@+@++++....................",
"....     ..........++@+@@+@@+@@+@@+@@+@@++..................",
"....     ........+++@@+@@+@@+@@+@@+@@+@@+@++................",
"....     ......++@@+@@+@@+@@+@@+@@+@@+@@+@@+++..............",
"....     .....+@+@@+@@+@@+@@+@@+@@+@@+@@+@@+@@+.............",
"....     ....+@@+@@+@@+@@+@@+@@+@@+@@+@@+@@+@@++...     ....",
"....     ...++@@+@@+@@+@@+@@+@@+@@+@@+@@+@@+@@+@+..     ....",
"....     ...++@@+@@+@@+@@+@@+@@+@@+@@+@@+@@+@@+@+..     ....",
"....     ..+@+@@+@@+@@+@@+@@+@@+@@+@@+@@+@@+@@+@@+.     ....",
"...........+@+@@+@@+@@+@@+@@+@@+@@+@@+@@+@@+@@+@@+.     ....",
"..........+@@+@@+@@+@@+@@+@@+@@+@@+@@+@@+@@+@@+@@@+     ....",
"..........+@@+@@+@@+@@+@@+@@+@@+@@+@@+@@+@@+@@+@@@+     ....",
"..........+@@+@@+@@+@@+@@+@@+@@+@@+@@+@@+@@+@@+@@@+     ....",
"    ......+@@+@@+@@+@@+@@+@@+@@+@@+@@+@@+@@+@@+@@@+     ....",
"    ......+@@+@@+@@+@@+@@+@@+@@+@@+@@+@@+@@+@@+@@@+.........",
"    ......+@@+@@+@@+@@+@@+@@+@@+@@+@@+@@+@@+@@+@@@+.........",
"    ......+@@+@@+@@+@@+@@+@@+@@+@@+@@+@@+@@+@@+@@@+.........",
"    ......+@@+@@+@@+@@+@@+@@+@@+@@+@@+@@+@@+@@+@@@+.........",
"    ......+@@+@@+@@+@@+@@+@@+@@+@@+@@+@@+@@+@@+@@@+.........",
"    ......+@@+@@+@@+@@+@@+@@+@@+@@+@@+@@+@@+@@+@@@+.........",
"    ......+@@+@@+@@+@@+@@+@@+@@+@@+@@+@@+@@+@@+@@@+.........",
"    ......+@@+@@+@@+@@+@@+@@+@@+@@+@@+@@+@@+@@+@@@+.........",
"..........+@@+@@+@@+@@+@@+@@+@@+@@+@@+@@+@@+@@+@@@+.........",
"..........+@@+@@+@@+@@+@@+@@+@@+@@+@@+@@+@@+@@+@@@+.........",
"..........+@@+@@+@@+@@+@@+@@+@@+@@+@@+@@+@@+@@+@@@+.........",
"..........+@@+@@+@@+@@+@@+@@+@@+@@+@@+@@+@@+@@+@@@+.........",
"..........+@@+@@+@@+@@+@@+@@+@@+@@+@@+@@+@@+@@+@@@+.....    ",
"..........+@@+@@+@@+@@+@@+@@+@@+@@+@@+@@+@@+@@+@@@+.....    ",
"..........+@@+@@+@@+@@+@@+@@+@@+@@+@@+@@+@@+@@+@@@+.....    ",
"..........+@@+@@+@@+@@+@@+@@+@@+@@+@@+@@+@@+@@+@@@+.....    ",
"..........+@@+@@+@@+@@+@@+@@+@@+@@+@@+@@+@@+@@+@@@+.....    ",
"....     .+@@+@@+@@+@@+@@+@@+@@+@@+@@+@@+@@+@@+@@@+.....    ",
"....     .+@@+@@+@@+@@+@@+@@+@@+@@+@@+@@+@@+@@+@@@+.....    ",
"....     .+@@+@@+@@+@@+@@+@@+@@+@@+@@+@@+@@+@@+@@@+.....    ",
"....     .+@@+@@+@@+@@+@@+@@+@@+@@+@@+@@+@@+@@+@@@+.....    ",
"....     .+@@+@@+@@+@@+@@+@@+@@+@@+@@+@@+@@+@@+@@@+.........",
"....     .+@#+@@+@@+@@+@@+@#+@@+@@+@@+@@+@@+#@+@@@+...#.....",
"....    #.+###@@+@@+@@+#@+###@@+@@+@@+@#+@####+@@@#..###....",
"....#  # ###@+#@+@@#@@###+#@##@+@@#@@##@####@@#@@#+#.#..#...",
"#.....#.####@###+@@+##+@######@+@@+##+#@####@##@#@+###.##...",
".#.#.##.#######@#@#+##+########+@#+##############@#######...",
"#################@##############@##########################.",
"############################################################",
".........    .............    ..........................    ",
".........    .............    ..........................    ",
".........    .............    ..........................    ",
".........    .............    ..........................    ",
".........    .............    ..........................    ",
"    ......................    .........            .....    ",
"    ......................    .........            .....    ",
"    ......................    .........            .....    ",
"    ......................    .........            .....    "};
