/* XPM */
static char * floor_xpm[] = {
"60 60 2 1",
" 	c #497A40",
".	c #4E9045",
"    .........    ......................            .........",
"    .........    ......................            .........",
"    .........    ......................            .........",
"    .........    ......................            .........",
".............             ..................................",
".............             ..................................",
".............             ..................................",
".............             ..................................",
".............             ..................................",
"....     ............     ........     .....................",
"....     ............     ........     .....................",
"....     ............     ........     .....................",
"....     ............     ........     .....................",
"....     ....    .................     ....    ....     ....",
"....     ....    .................     ....    ....     ....",
"....     ....    .................     ....    ....     ....",
"....     ....    .................     ....    ....     ....",
".............    ..........................    ....     ....",
".............    ..........................    ....     ....",
".............    ..........................    ....     ....",
".............    ..........................    ....     ....",
"    ......................             ............     ....",
"    ......................             .....................",
"    ......................             .....................",
"    ......................             .....................",
"    ......................             .....................",
"    .........    .........             .....................",
"    .........    .........             .....................",
"    .........    .........             .....................",
"    .........    .........             .....................",
".............    ..........................    .............",
".............    ..........................    .............",
".............    ..........................    .............",
".............    ..........................    .............",
"..........................    .............    .........    ",
"..........................    .............    .........    ",
"..........................    .............    .........    ",
"..........................    .............    .........    ",
"..........................    .............    .........    ",
"....     ........             ..........................    ",
"....     ........             ..........................    ",
"....     ........             ..........................    ",
"....     ........             ..........................    ",
"....     ........    .............     ........    .........",
"....     ........    .............     ........    .........",
"....     ........    .............     ........    .........",
"....     ........    .............     ........    .........",
".........    .....................     ........    .........",
".........    .....................     ........    .........",
".........    .....................     ........    .........",
".........    .....................     ........    .........",
".........    .............    ..........................    ",
".........    .............    ..........................    ",
".........    .............    ..........................    ",
".........    .............    ..........................    ",
".........    .............    ..........................    ",
"    ......................    .........            .....    ",
"    ......................    .........            .....    ",
"    ......................    .........            .....    ",
"    ......................    .........            .....    "};
