/* XPM */
static char * player2_xpm[] = {
"60 60 7 1",
" 	c #497A40",
".	c #4E9045",
"+	c #000000",
"@	c #E5AA7A",
"#	c #E84149",
"$	c #990030",
"%	c #9C5A3C",
"    .........    ......................            .........",
"    .........    ......................            .........",
"    .........    ......................            .........",
"    .........    ......................            .........",
".............             ++++++............................",
".............           ++@@@@@@++..........................",
".............          +@@@@@@@@@@+.........................",
".............         +@@@@@@@@@@@@+........................",
".............         +@@@@@@@@@@@@++.......................",
"....     ............+@@@+++@@@@+++@@+ .....................",
"....     ............+@@+###+@@+###+@+ .....................",
"....     ............+@@+###+@@+###+@+ .....................",
"....     ............+@@@+++@@@@+++@@+ .....................",
"....     ....    ....+@@@@@@@@@@@@@@@+ ....    ....     ....",
"....     ....    ....+@@@@@@@@@@@@@@@+ ....    ....     ....",
"....     ....    .....+@@+++@@@@@@@@@+ ....    ....     ....",
"....     ....    .....+@@+++++++@@@@@+ ....    ....     ....",
".............    ......+@@++++++@@@++......    ....     ....",
".............    .......+@@@@@@@@@@+.......    ....     ....",
".............    ......+++@@@@@@@@+........    ....     ....",
".............    ...+++$$$++@@@@@+.........    ....     ....",
"    ...............+$$$$$$$$+++++$+    ............     ....",
"    ..............+$$$$$$$$$$$$$$$$++  .....................",
"    ..............+$$$+$$$$$$$$$$$$+++ .....................",
"    ..............++++$$$+$$$$$$$$$$$$+.....................",
"    .............+$$$$$$+$+$$$$$$$$$$$+.....................",
"    .........    +$$$$$++$$$$$$$$$$++$$+....................",
"    .........    ++++++.+$$$$$$$$$$++$$+....................",
"    .........    +@@@@+.+$$$$$$$$$$+++++....................",
"    .........   +@@@@@+..+$$$$$$$$$++@@@+...................",
".............   +@@@++....+$$$$$$$$++@@@+..    .............",
".............   +@@@++....+$$$$$$$$++@@++..    .............",
".............   +@@@++....+$$$$$$$$++@@@+..    .............",
".............   +@@@@@+...++++++++++++@@+..    .............",
"................+@@@@@+..+%%%%%%%%%+++@@+..    .........    ",
"................+@@@++.+.+%%%%%%%%%%%++@+..    .........    ",
".................+@@@@+++%%%%%%%%%%%%+@+...    .........    ",
"..................++++..+%%%%%+%+%%%%+++...    .........    ",
".......................+%%%%%%+++%%%%+.....    .........    ",
"....     ........      +%%%%%%+%%%%%%+..................    ",
"....     ........      +%%%%%++%%%%%%+..................    ",
"....     ........     +%%%%%%++%%%%++...................    ",
"....     ........     +++%+%+ +++%%++...................    ",
"....     ........    .+@++@+..+@@++    ........    .........",
"....     ........    .+@@@@+..+@@@+    ........    .........",
"....     ........   ++@@@@+...+@@@+    ........    .........",
"....     ........   ++@@@@+...+@@@+    ........    .........",
".........    .......++@@@@+...+@@@@++  ........    .........",
".........    .......++@@@+....+@@@@++  ........    .........",
".........    ......++++@@+....+@@@@++  ........    .........",
".........    .....+++++@@+....+@@@@@@+ ........    .........",
".........    .....+@@@@+@+    +@@@@@@@+.................    ",
".........    .....+@@@@@@+    +@@@@@@@@+................    ",
".........    .....++++++++    ++++++++++................    ",
".........    .............    ..........................    ",
".........    .............    ..........................    ",
"    ......................    .........            .....    ",
"    ......................    .........            .....    ",
"    ......................    .........            .....    ",
"    ......................    .........            .....    "};
