/* XPM */
static char * player_exit_xpm[] = {
"60 60 76 1",
" 	c #497A40",
".	c #4E9045",
"+	c #20411C",
"@	c #081706",
"#	c #000000",
"$	c #010301",
"%	c #E5AA7A",
"&	c #464F45",
"*	c #464C46",
"=	c #464746",
"-	c #464646",
";	c #121212",
">	c #030A03",
",	c #464846",
"'	c #020702",
")	c #E84149",
"!	c #020501",
"~	c #0A1B08",
"{	c #030B02",
"]	c #071205",
"^	c #0D210B",
"/	c #071505",
"(	c #0A1808",
"_	c #051104",
":	c #0C1E09",
"<	c #091707",
"[	c #010401",
"}	c #0B1D08",
"|	c #040E03",
"1	c #081406",
"2	c #030802",
"3	c #0D200A",
"4	c #061005",
"5	c #464B46",
"6	c #464A46",
"7	c #10250D",
"8	c #990030",
"9	c #1D3D19",
"0	c #122A0F",
"a	c #1E3619",
"b	c #040C03",
"c	c #061305",
"d	c #464946",
"e	c #1D3519",
"f	c #474E46",
"g	c #474F46",
"h	c #10260D",
"i	c #11280E",
"j	c #0E230B",
"k	c #142D11",
"l	c #091907",
"m	c #152E12",
"n	c #9C5A3C",
"o	c #12290F",
"p	c #0E1E0B",
"q	c #0F240C",
"r	c #162F12",
"s	c #091507",
"t	c #182D14",
"u	c #5A7713",
"v	c #050E04",
"w	c #5B750B",
"x	c #5A7714",
"y	c #5B7611",
"z	c #152811",
"A	c #5B750C",
"B	c #5B760E",
"C	c #5B750D",
"D	c #5A7715",
"E	c #5B7610",
"F	c #5B750E",
"G	c #5A7513",
"H	c #0F1701",
"I	c #5B750F",
"J	c #5A7712",
"K	c #5B760F",
"    .........    ......................            .........",
"    .........    ......................            .........",
"    .........    ......................            .........",
"    .........    ......................            .........",
".............             +@####............................",
".............           $#%%%%%%##..........................",
".............          #%%%%%%%%%%#.........................",
".............         #%%%%%%%%%%%%#........................",
".............        &#%%%%%%%%%%%%##*=-....................",
"....     ..........--#%%%###%%%%###%%;>#,*..................",
"....     ........=--'#%%#)))#%%#)))#%;!#=~--................",
"....     ......-={#-'#%%#)))#%%#)))#%#]#-##---..............",
"....     .....-#-^#-/#%%%###%%%%###%%#(#-_{-##-.............",
"....     ....-##=:#-'#%%%%%%%%%%%%%%%#<#-[}=$#--...     ....",
"....     ...--$$-[#-##%%%%%%%%%%%%%%%#(#-#|=$#-#-..     ....",
"....     ...--$>=##-#_#%%###%%%%%%%%%#1#-#',2$-#-..     ....",
"....     ..-#=!$=[#-#3#%%#######%%%%%#4#-##52!-##-.     ....",
"...........-#=##-#{-##-#%%######%%%##*'#-##,#!-##-.     ....",
"..........-##-#$=#/-##-##%%%%%%%%%%#|-##-##-#$-###-     ....",
"..........-##-#$6##-##-###%%%%%%%%#7'-##-##-#$-###-     ....",
"..........-##-$#=##-###888##%%%%%#690,'#-##-#$-###-     ....",
"    ......-##-[#-{##88888888#####8#ab62[-##-#[-###-     ....",
"    ......-##-c#,|#8888888888888888##,2|-##d{[-###-.........",
"    ......-##-~#-##888#888888888888###e[-#[f|{-###-.........",
"    ......-##-##-[####888#888888888888#{-#'gc/-###-.........",
"    ......-##-##d#888888#8#88888888888#h=#[6ci,###-.........",
"    ......-##-##*#88888##8888888888##88#-##-{:*###-.........",
"    ......-##=##d########8888888888##88#-##-''-###-.........",
"    ......-#[d##d#%%%%###8888888888#####,[#-[#-###-.........",
"    ......-['5###%%%%%#j/#888888888##%%%#k#-##-###-.........",
"..........-'@6#2#%%%##-##-#88888888##%%%#@#-##-###-.........",
"..........-/~6###%%%##-#'5#88888888##%%##c#-##-###-.........",
"..........-~3=#]#%%%##g/_-#88888888##%%%#'#-##-###-.........",
"..........-}^5###%%%%%###-############%%#{#-$#-###-.........",
"..........-lcg#m#%%%%%####nnnnnnnnn###%%#'#->#-###-.....    ",
"..........-/c-###%%%##-###nnnnnnnnnnn##%#_#-#$-###-.....    ",
"..........-/c-#:-#%%%%###nnnnnnnnnnnn#%#=[#-#$-###-.....    ",
"..........-@cd##6#####-##nnnnn#n#nnnn###,##=#$-###-.....    ",
"..........dc{6~#-o/5hjf#nnnnnn###nnnn###,'#=##-###-.....    ",
"....     .-[#-##-#1-p#-#nnnnnn#nnnnnn##q6##-##-###-.....    ",
"....     .-##-##-##-4!-#nnnnn##nnnnnn#r'-##-##-###-.....    ",
"....     .-##-##-$#-#2#nnnnnn##nnnn##-|#-##-##-###-.....    ",
"....     .-|[-##-##-#s###n#n#####nn##-##-##-#[-###-.....    ",
"....     .-[/-##-##-#3#%##%#-##%%##t1d!#-[#-#[-###-.........",
"....     .-'u-##-#262|#%%%%#-##%%%#!#-v#-/#,w[-###-...w.....",
"....    w.-wxy##-$z-##%%%%#Aw##%%%#2!,#w5~wBwA-###w..www....",
"....w  w www@5w#-2$A##%%%%#/CD#%%%#>$wC#ExwF#'w##w-w.w..w...",
"w.....w.wwww$uww-##=##%%%%#AwF#%%%%##&G#EBwB[Aw#w#-www.ww...",
".w.w.ww.wwwwAEw#w#wf##%%%#xFAw#%%%%##wAwwwAwAFwww#wwwwwww...",
"wwwwwwwwwwwwwEwwA#u####%%#AwAA#%%%%##AwwwwwwwAwwwwwwwwwwwwA.",
"wwwwwwwwwwwwwAwwww#####%%#AwwA#%%%%%%HIJAwAwwAAwwwwwwwwwwwwK",
".........    .....#%%%%#%#    #%%%%%%%#.................    ",
".........    .....#%%%%%%#    #%%%%%%%%#................    ",
".........    .....########    ##########................    ",
".........    .............    ..........................    ",
".........    .............    ..........................    ",
"    ......................    .........            .....    ",
"    ......................    .........            .....    ",
"    ......................    .........            .....    ",
"    ......................    .........            .....    "};
