/* XPM */
static char * wall_xpm[] = {
"60 60 4 1",
" 	c #404040",
".	c #353535",
"+	c #313131",
"@	c #575757",
"         ..++........     ..+++++++++++++++..               ",
"         ..++........     ..+++++++++++++++..               ",
"        .++++++++++++.....++++@@@@@@@@@@@@@++..             ",
"        .++++++++++++.....++++@@@@@@@@@@@@@++..             ",
"        .++@@@@@@@@@@+++++++@@             @@++..           ",
"        .++@@@@@@@@@@+++++++@@             @@++..           ",
"........+@@          @@@..++........         @@++..     ....",
"........+@@          @@@..++........         @@++..     ....",
"+++++++++........      .++++++++++++..         ++.......++++",
"@@@@@@..+++++++++..  ..+++@@@@@@@@++++.        +++++++++++@@",
"@@@@@@..+++++++++..  ..+++@@@@@@@@++++.        +++++++++++@@",
"    ..+++++@@@@++++..++@@@        @@+++........++@@@@@@@@@  ",
"    ..+++++@@@@++++..++@@@        @@+++........++@@@@@@@@@  ",
"  ..++++@@@    @@++++@@             @@+++++++++++++..       ",
"  ..++++@@@    @@++++@@             @@+++++++++++++..       ",
"..++++@@         @@++++               +@@@@@@@@@@@@++.      ",
"..++++@@         @@++++               +@@@@@@@@@@@@++.      ",
"++++@@             @@++.....          +@@          @@+..    ",
"++++@@             @@++.....          +@@          @@+..    ",
"@@++@@               +++++++..        +++@@          @++....",
"@@++@@               +++++++..        +++@@          @++....",
"@@++++               ++@@@++++..      +++@@           ++++++",
"@@++++               ++@@@++++..      +++@@           ++++++",
"@@..++++             ++   @@@@++..    +@@++..        +++@@  ",
"@@++@@++             ++     @@++++....+@@++++        +@@    ",
"@@++@@++             ++     @@++++....+@@++++        +@@    ",
"..++  ++           ..++       @@++++++@  @@++        +      ",
"..++  ++           ..++       @@++++++@  @@++        +      ",
"++++  ++...        ++++         ++++@@     ++      ..+..    ",
"++++  ++...        ++++         ++++@@     ++      ..+..    ",
"++@@    +++........++           ++@@       ++..  ..++.    @@",
"++@@    +++........++           ++@@       ++..  ..++.    @@",
"++      @@@++++++++++         ..++@@       ++++..++.....  @@",
"++      @@@++++++++++         ..++@@       ++++..++.....  @@",
"++         @@++             ..++++@@       ++++++  +++++....",
"++         @@++             ..++++@@       ++++++  +++++....",
"++++         ++..      .....++++@@       ..++@@++++@@@@@++++",
"++++         ++..      .....++++@@       ..++@@++++@@@@@++++",
"@@++         ++++......+++++++@@    .....++++  @@++     @@++",
"@@++..         ..++++++@@@@@++......+++++@@@@    ++       @@",
"@@++..         ..++++++@@@@@++......+++++@@@@    ++       @@",
"  @@++...    ..++@@@@@@   @@++++++++++@@@        ++         ",
"  @@++...    ..++@@@@@@   @@++++++++++@@@        ++         ",
"    @@+++....++++           @@@@@@@@++@          +++++      ",
"    @@+++....++++           @@@@@@@@++@          +++++      ",
"      @@+++++@@++++               ..++         ..++@@@++    ",
"      @@+++++@@++++               ..++         ..++@@@++    ",
"      ++@@@@@  @@++....         ..++++       ..++++@@ @@++  ",
"      ++@@@@@  @@++....         ..++++       ..++++@@ @@++  ",
"      ++           ++++.........++++       ..++++@@     @@++",
"      ++           ++++.........++++       ..++++@@     @@++",
"+++++++++..          +++++++++++++       ..++++@@     ..++@@",
"+++++++++..          +++++++++++++       ..++++@@     ..++@@",
"@@@@@@@@+++....    ....+++++@@++++.......++++@@      .++@@  ",
"        @++++++....+++++++@@  @@+++++++++++@@      ..+@@    ",
"        @++++++....+++++++@@  @@+++++++++++@@      ..+@@    ",
"         @@@@++++++++   ++        ++++           ..++@      ",
"         @@@@++++++++   ++        ++++           ..++@      ",
"      ++                ++          +++          ++         ",
"      ++                ++          +++          ++         "};
